<mxfile host="app.diagrams.net" modified="2020-07-15T01:45:57.339Z" agent="5.0 (Windows NT 10.0; Win64; x64) AppleWebKit/537.36 (KHTML, like Gecko) Chrome/83.0.4103.116 Safari/537.36" etag="hDQDxIYpZTGKmZIxwH4U" version="13.4.2" type="github">
  <diagram id="jsM0z9PeffmMUa2pt2d3" name="Page-1">
    <mxGraphModel dx="1257" dy="599" grid="1" gridSize="10" guides="1" tooltips="1" connect="1" arrows="1" fold="1" page="1" pageScale="1" pageWidth="960" pageHeight="503" math="0" shadow="0">
      <root>
        <mxCell id="0" />
        <mxCell id="1" parent="0" />
        <mxCell id="I6ufPXRZWOeGENPabrLU-53" value="&lt;br&gt;keypair()" style="rounded=1;whiteSpace=wrap;html=1;fontSize=12;opacity=40;align=left;verticalAlign=top;dashed=1;dashPattern=1 1;fillColor=#cdeb8b;strokeColor=#36393d;" parent="1" vertex="1">
          <mxGeometry x="10" y="190" width="180" height="210" as="geometry" />
        </mxCell>
        <mxCell id="I6ufPXRZWOeGENPabrLU-59" value="" style="rounded=1;whiteSpace=wrap;html=1;fontSize=12;opacity=40;align=left;verticalAlign=top;dashed=1;dashPattern=1 1;fillColor=#cdeb8b;strokeColor=#36393d;" parent="1" vertex="1">
          <mxGeometry x="330" y="190" width="190" height="210" as="geometry" />
        </mxCell>
        <mxCell id="I6ufPXRZWOeGENPabrLU-64" value="" style="rounded=1;whiteSpace=wrap;html=1;fontSize=12;opacity=40;align=left;verticalAlign=top;dashed=1;dashPattern=1 1;fillColor=#cdeb8b;strokeColor=#36393d;" parent="1" vertex="1">
          <mxGeometry x="610" y="200" width="270" height="200" as="geometry" />
        </mxCell>
        <mxCell id="I6ufPXRZWOeGENPabrLU-17" style="edgeStyle=orthogonalEdgeStyle;rounded=0;orthogonalLoop=1;jettySize=auto;html=1;entryX=0.5;entryY=0;entryDx=0;entryDy=0;fontSize=12;" parent="1" source="I6ufPXRZWOeGENPabrLU-9" target="I6ufPXRZWOeGENPabrLU-14" edge="1">
          <mxGeometry relative="1" as="geometry">
            <Array as="points">
              <mxPoint x="390" y="344" />
              <mxPoint x="390" y="344" />
            </Array>
          </mxGeometry>
        </mxCell>
        <mxCell id="I6ufPXRZWOeGENPabrLU-63" style="edgeStyle=orthogonalEdgeStyle;rounded=0;orthogonalLoop=1;jettySize=auto;html=1;entryX=0.5;entryY=0;entryDx=0;entryDy=0;labelBackgroundColor=none;fontSize=12;" parent="1" source="I6ufPXRZWOeGENPabrLU-9" target="I6ufPXRZWOeGENPabrLU-62" edge="1">
          <mxGeometry relative="1" as="geometry">
            <Array as="points">
              <mxPoint x="340" y="324" />
              <mxPoint x="340" y="387" />
              <mxPoint x="355" y="387" />
            </Array>
          </mxGeometry>
        </mxCell>
        <mxCell id="I6ufPXRZWOeGENPabrLU-9" value="64 bytes privatekey" style="rounded=0;whiteSpace=wrap;html=1;fontSize=12;align=center;fillColor=#ffe6cc;strokeColor=#d79b00;fontStyle=0" parent="1" vertex="1">
          <mxGeometry x="350" y="314" width="160" height="20" as="geometry" />
        </mxCell>
        <mxCell id="I6ufPXRZWOeGENPabrLU-11" value="" style="rounded=0;whiteSpace=wrap;html=1;fontSize=12;align=center;fillColor=#a20025;strokeColor=#6F0000;fontColor=#ffffff;opacity=40;" parent="1" vertex="1">
          <mxGeometry x="350" y="314" width="10" height="20" as="geometry" />
        </mxCell>
        <mxCell id="I6ufPXRZWOeGENPabrLU-12" value="" style="rounded=0;whiteSpace=wrap;html=1;fontSize=12;align=center;fillColor=#a20025;strokeColor=#6F0000;fontColor=#ffffff;opacity=40;" parent="1" vertex="1">
          <mxGeometry x="420" y="314" width="10" height="20" as="geometry" />
        </mxCell>
        <mxCell id="I6ufPXRZWOeGENPabrLU-1" value="Cardano Shelley &lt;br&gt;Signing Key Types " style="text;html=1;strokeColor=none;fillColor=none;align=center;verticalAlign=middle;whiteSpace=wrap;rounded=0;fontSize=22;" parent="1" vertex="1">
          <mxGeometry x="299" y="10" width="362" height="60" as="geometry" />
        </mxCell>
        <mxCell id="I6ufPXRZWOeGENPabrLU-2" value="Ed25519" style="text;html=1;strokeColor=none;fillColor=none;align=center;verticalAlign=middle;whiteSpace=wrap;rounded=0;fontSize=22;" parent="1" vertex="1">
          <mxGeometry x="65" y="120" width="110" height="30" as="geometry" />
        </mxCell>
        <mxCell id="I6ufPXRZWOeGENPabrLU-3" value="Ed25519Extended" style="text;html=1;strokeColor=none;fillColor=none;align=center;verticalAlign=middle;whiteSpace=wrap;rounded=0;fontSize=22;" parent="1" vertex="1">
          <mxGeometry x="330" y="120" width="200" height="30" as="geometry" />
        </mxCell>
        <mxCell id="I6ufPXRZWOeGENPabrLU-4" value="Ed25519Bip32" style="text;html=1;strokeColor=none;fillColor=none;align=center;verticalAlign=middle;whiteSpace=wrap;rounded=0;fontSize=22;" parent="1" vertex="1">
          <mxGeometry x="650" y="120" width="200" height="30" as="geometry" />
        </mxCell>
        <mxCell id="I6ufPXRZWOeGENPabrLU-20" value="SHA512" style="edgeStyle=orthogonalEdgeStyle;rounded=0;orthogonalLoop=1;jettySize=auto;html=1;entryX=0.5;entryY=0;entryDx=0;entryDy=0;fontSize=12;labelBackgroundColor=none;fontStyle=3" parent="1" source="I6ufPXRZWOeGENPabrLU-5" target="I6ufPXRZWOeGENPabrLU-19" edge="1">
          <mxGeometry relative="1" as="geometry" />
        </mxCell>
        <mxCell id="I6ufPXRZWOeGENPabrLU-5" value="32b rand seed" style="rounded=0;whiteSpace=wrap;html=1;fontSize=12;align=center;fillColor=#ffe6cc;strokeColor=#d79b00;" parent="1" vertex="1">
          <mxGeometry x="55" y="160" width="90" height="20" as="geometry" />
        </mxCell>
        <mxCell id="I6ufPXRZWOeGENPabrLU-10" value="Set bits different than &lt;br&gt;Cardano&#39;s Ed25519Bip32&lt;br&gt;key[31] |= 0b00&lt;b&gt;&lt;font color=&quot;#ff0000&quot;&gt;0&lt;/font&gt;&lt;/b&gt;11111" style="edgeStyle=orthogonalEdgeStyle;rounded=0;orthogonalLoop=1;jettySize=auto;html=1;entryX=0.5;entryY=0;entryDx=0;entryDy=0;fontSize=12;labelBackgroundColor=none;" parent="1" source="I6ufPXRZWOeGENPabrLU-6" target="I6ufPXRZWOeGENPabrLU-9" edge="1">
          <mxGeometry x="0.3433" relative="1" as="geometry">
            <Array as="points">
              <mxPoint x="430" y="190" />
              <mxPoint x="430" y="190" />
            </Array>
            <mxPoint as="offset" />
          </mxGeometry>
        </mxCell>
        <mxCell id="I6ufPXRZWOeGENPabrLU-6" value="64 bytes random" style="rounded=0;whiteSpace=wrap;html=1;fontSize=12;align=center;fillColor=#ffe6cc;strokeColor=#d79b00;fontStyle=0" parent="1" vertex="1">
          <mxGeometry x="350" y="160" width="160" height="20" as="geometry" />
        </mxCell>
        <mxCell id="I6ufPXRZWOeGENPabrLU-82" style="edgeStyle=orthogonalEdgeStyle;rounded=0;orthogonalLoop=1;jettySize=auto;html=1;labelBackgroundColor=none;fontSize=12;entryX=0.75;entryY=0;entryDx=0;entryDy=0;" parent="1" source="I6ufPXRZWOeGENPabrLU-7" target="I6ufPXRZWOeGENPabrLU-80" edge="1">
          <mxGeometry relative="1" as="geometry" />
        </mxCell>
        <mxCell id="I6ufPXRZWOeGENPabrLU-7" value="96 bytes random" style="rounded=0;whiteSpace=wrap;html=1;fontSize=12;align=center;fillColor=#ffe6cc;strokeColor=#d79b00;" parent="1" vertex="1">
          <mxGeometry x="630" y="160" width="240" height="20" as="geometry" />
        </mxCell>
        <mxCell id="I6ufPXRZWOeGENPabrLU-13" value="32b pub key" style="rounded=0;whiteSpace=wrap;html=1;fontSize=12;align=center;fillColor=#dae8fc;strokeColor=#6c8ebf;fontStyle=0" parent="1" vertex="1">
          <mxGeometry x="450" y="420" width="80" height="20" as="geometry" />
        </mxCell>
        <mxCell id="I6ufPXRZWOeGENPabrLU-18" value="to_public() : &lt;br&gt;Normal scalarmult" style="edgeStyle=orthogonalEdgeStyle;rounded=0;orthogonalLoop=1;jettySize=auto;html=1;entryX=0.5;entryY=0;entryDx=0;entryDy=0;fontSize=12;labelBackgroundColor=none;" parent="1" source="I6ufPXRZWOeGENPabrLU-14" target="I6ufPXRZWOeGENPabrLU-13" edge="1">
          <mxGeometry relative="1" as="geometry">
            <Array as="points">
              <mxPoint x="390" y="390" />
              <mxPoint x="490" y="390" />
            </Array>
          </mxGeometry>
        </mxCell>
        <mxCell id="I6ufPXRZWOeGENPabrLU-14" value="priv key" style="rounded=0;whiteSpace=wrap;html=1;fontSize=12;align=center;fillColor=#ffe6cc;strokeColor=#d79b00;fontStyle=0" parent="1" vertex="1">
          <mxGeometry x="350" y="354" width="80" height="20" as="geometry" />
        </mxCell>
        <mxCell id="I6ufPXRZWOeGENPabrLU-15" value="" style="rounded=0;whiteSpace=wrap;html=1;fontSize=12;align=center;fillColor=#a20025;strokeColor=#6F0000;fontColor=#ffffff;opacity=40;" parent="1" vertex="1">
          <mxGeometry x="350" y="354" width="10" height="20" as="geometry" />
        </mxCell>
        <mxCell id="I6ufPXRZWOeGENPabrLU-16" value="" style="rounded=0;whiteSpace=wrap;html=1;fontSize=12;align=center;fillColor=#a20025;strokeColor=#6F0000;fontColor=#ffffff;opacity=40;" parent="1" vertex="1">
          <mxGeometry x="420" y="354" width="10" height="20" as="geometry" />
        </mxCell>
        <mxCell id="I6ufPXRZWOeGENPabrLU-45" value="Set bits" style="edgeStyle=orthogonalEdgeStyle;rounded=0;orthogonalLoop=1;jettySize=auto;html=1;entryX=1;entryY=0;entryDx=0;entryDy=0;fontSize=12;labelBackgroundColor=none;" parent="1" source="I6ufPXRZWOeGENPabrLU-19" target="I6ufPXRZWOeGENPabrLU-44" edge="1">
          <mxGeometry relative="1" as="geometry" />
        </mxCell>
        <mxCell id="I6ufPXRZWOeGENPabrLU-19" value="64 bytes" style="rounded=0;whiteSpace=wrap;html=1;fontSize=12;align=center;fillColor=#ffe6cc;strokeColor=#d79b00;fontStyle=0" parent="1" vertex="1">
          <mxGeometry x="20" y="240" width="160" height="20" as="geometry" />
        </mxCell>
        <mxCell id="I6ufPXRZWOeGENPabrLU-41" style="edgeStyle=orthogonalEdgeStyle;rounded=0;orthogonalLoop=1;jettySize=auto;html=1;entryX=0.5;entryY=0;entryDx=0;entryDy=0;fontSize=12;exitX=0.25;exitY=1;exitDx=0;exitDy=0;" parent="1" source="I6ufPXRZWOeGENPabrLU-5" target="I6ufPXRZWOeGENPabrLU-55" edge="1">
          <mxGeometry relative="1" as="geometry">
            <mxPoint x="60" y="350" as="targetPoint" />
            <Array as="points">
              <mxPoint x="78" y="190" />
              <mxPoint x="10" y="190" />
              <mxPoint x="10" y="400" />
              <mxPoint x="60" y="400" />
            </Array>
            <mxPoint x="100" y="182" as="sourcePoint" />
          </mxGeometry>
        </mxCell>
        <mxCell id="nAcAYTowog2pHm2zANv1-1" style="edgeStyle=orthogonalEdgeStyle;rounded=0;orthogonalLoop=1;jettySize=auto;html=1;entryX=0.5;entryY=0;entryDx=0;entryDy=0;exitX=0.25;exitY=1;exitDx=0;exitDy=0;" parent="1" source="I6ufPXRZWOeGENPabrLU-42" target="I6ufPXRZWOeGENPabrLU-48" edge="1">
          <mxGeometry relative="1" as="geometry" />
        </mxCell>
        <mxCell id="I6ufPXRZWOeGENPabrLU-42" value="64 bytes" style="rounded=0;whiteSpace=wrap;html=1;fontSize=12;align=center;fillColor=#ffe6cc;strokeColor=#d79b00;fontStyle=0" parent="1" vertex="1">
          <mxGeometry x="20" y="310" width="160" height="20" as="geometry" />
        </mxCell>
        <mxCell id="I6ufPXRZWOeGENPabrLU-43" value="" style="rounded=0;whiteSpace=wrap;html=1;fontSize=12;align=center;fillColor=#a20025;strokeColor=#6F0000;fontColor=#ffffff;opacity=40;" parent="1" vertex="1">
          <mxGeometry x="20" y="310" width="10" height="20" as="geometry" />
        </mxCell>
        <mxCell id="I6ufPXRZWOeGENPabrLU-44" value="" style="rounded=0;whiteSpace=wrap;html=1;fontSize=12;align=center;fillColor=#a20025;strokeColor=#6F0000;fontColor=#ffffff;opacity=40;" parent="1" vertex="1">
          <mxGeometry x="90" y="310" width="10" height="20" as="geometry" />
        </mxCell>
        <mxCell id="I6ufPXRZWOeGENPabrLU-46" value="32b pub key" style="rounded=0;whiteSpace=wrap;html=1;fontSize=12;align=center;fillColor=#ffe6cc;strokeColor=#d79b00;fontStyle=0" parent="1" vertex="1">
          <mxGeometry x="100" y="420" width="80" height="20" as="geometry" />
        </mxCell>
        <mxCell id="I6ufPXRZWOeGENPabrLU-47" value="Normal scalarmult" style="edgeStyle=orthogonalEdgeStyle;rounded=0;orthogonalLoop=1;jettySize=auto;html=1;entryX=0.5;entryY=0;entryDx=0;entryDy=0;fontSize=12;labelBackgroundColor=none;" parent="1" source="I6ufPXRZWOeGENPabrLU-48" target="I6ufPXRZWOeGENPabrLU-46" edge="1">
          <mxGeometry x="0.5" y="22" relative="1" as="geometry">
            <Array as="points">
              <mxPoint x="60" y="390" />
              <mxPoint x="140" y="390" />
            </Array>
            <mxPoint x="-2" y="-10" as="offset" />
          </mxGeometry>
        </mxCell>
        <mxCell id="nAcAYTowog2pHm2zANv1-7" style="edgeStyle=orthogonalEdgeStyle;rounded=0;orthogonalLoop=1;jettySize=auto;html=1;exitX=0.5;exitY=1;exitDx=0;exitDy=0;entryX=0.5;entryY=0;entryDx=0;entryDy=0;" parent="1" source="I6ufPXRZWOeGENPabrLU-48" target="nAcAYTowog2pHm2zANv1-2" edge="1">
          <mxGeometry relative="1" as="geometry">
            <Array as="points">
              <mxPoint x="60" y="390" />
              <mxPoint x="230" y="390" />
            </Array>
          </mxGeometry>
        </mxCell>
        <mxCell id="I6ufPXRZWOeGENPabrLU-48" value="secret key" style="rounded=0;whiteSpace=wrap;html=1;fontSize=12;align=center;fillColor=#ffe6cc;strokeColor=#d79b00;fontStyle=0" parent="1" vertex="1">
          <mxGeometry x="20" y="360" width="80" height="20" as="geometry" />
        </mxCell>
        <mxCell id="I6ufPXRZWOeGENPabrLU-49" value="" style="rounded=0;whiteSpace=wrap;html=1;fontSize=12;align=center;fillColor=#a20025;strokeColor=#6F0000;fontColor=#ffffff;opacity=40;" parent="1" vertex="1">
          <mxGeometry x="20" y="360" width="10" height="20" as="geometry" />
        </mxCell>
        <mxCell id="I6ufPXRZWOeGENPabrLU-50" value="" style="rounded=0;whiteSpace=wrap;html=1;fontSize=12;align=center;fillColor=#a20025;strokeColor=#6F0000;fontColor=#ffffff;opacity=40;" parent="1" vertex="1">
          <mxGeometry x="90" y="360" width="10" height="20" as="geometry" />
        </mxCell>
        <mxCell id="I6ufPXRZWOeGENPabrLU-55" value="32b seed +" style="rounded=0;whiteSpace=wrap;html=1;fontSize=12;align=center;fillColor=#ffe6cc;strokeColor=#d79b00;fontStyle=0" parent="1" vertex="1">
          <mxGeometry x="20" y="420" width="80" height="20" as="geometry" />
        </mxCell>
        <mxCell id="I6ufPXRZWOeGENPabrLU-60" value="64 bytes private key" style="rounded=0;whiteSpace=wrap;html=1;fontSize=12;align=center;fillColor=#ffe6cc;strokeColor=#d79b00;fontStyle=0" parent="1" vertex="1">
          <mxGeometry x="280" y="420" width="160" height="20" as="geometry" />
        </mxCell>
        <mxCell id="I6ufPXRZWOeGENPabrLU-61" value="" style="rounded=0;whiteSpace=wrap;html=1;fontSize=12;align=center;fillColor=#a20025;strokeColor=#6F0000;fontColor=#ffffff;opacity=40;" parent="1" vertex="1">
          <mxGeometry x="280" y="420" width="10" height="20" as="geometry" />
        </mxCell>
        <mxCell id="I6ufPXRZWOeGENPabrLU-62" value="" style="rounded=0;whiteSpace=wrap;html=1;fontSize=12;align=center;fillColor=#a20025;strokeColor=#6F0000;fontColor=#ffffff;opacity=40;" parent="1" vertex="1">
          <mxGeometry x="350" y="420" width="10" height="20" as="geometry" />
        </mxCell>
        <mxCell id="I6ufPXRZWOeGENPabrLU-65" style="edgeStyle=orthogonalEdgeStyle;rounded=0;orthogonalLoop=1;jettySize=auto;html=1;entryX=0.5;entryY=0;entryDx=0;entryDy=0;fontSize=12;" parent="1" source="I6ufPXRZWOeGENPabrLU-67" target="I6ufPXRZWOeGENPabrLU-72" edge="1">
          <mxGeometry relative="1" as="geometry">
            <Array as="points">
              <mxPoint x="670" y="350" />
              <mxPoint x="670" y="350" />
            </Array>
          </mxGeometry>
        </mxCell>
        <mxCell id="I6ufPXRZWOeGENPabrLU-66" style="edgeStyle=orthogonalEdgeStyle;rounded=0;orthogonalLoop=1;jettySize=auto;html=1;entryX=0.5;entryY=0;entryDx=0;entryDy=0;labelBackgroundColor=none;fontSize=12;" parent="1" source="I6ufPXRZWOeGENPabrLU-67" target="I6ufPXRZWOeGENPabrLU-77" edge="1">
          <mxGeometry relative="1" as="geometry">
            <Array as="points">
              <mxPoint x="615" y="324" />
            </Array>
          </mxGeometry>
        </mxCell>
        <mxCell id="I6ufPXRZWOeGENPabrLU-67" value="64 bytes" style="rounded=0;whiteSpace=wrap;html=1;fontSize=12;align=center;fillColor=#ffe6cc;strokeColor=#d79b00;fontStyle=0" parent="1" vertex="1">
          <mxGeometry x="630" y="314" width="160" height="20" as="geometry" />
        </mxCell>
        <mxCell id="I6ufPXRZWOeGENPabrLU-68" value="" style="rounded=0;whiteSpace=wrap;html=1;fontSize=12;align=center;fillColor=#a20025;strokeColor=#6F0000;fontColor=#ffffff;opacity=40;" parent="1" vertex="1">
          <mxGeometry x="630" y="314" width="10" height="20" as="geometry" />
        </mxCell>
        <mxCell id="I6ufPXRZWOeGENPabrLU-70" value="32b pub key" style="rounded=0;whiteSpace=wrap;html=1;fontSize=12;align=center;fillColor=#dae8fc;strokeColor=#6c8ebf;fontStyle=0" parent="1" vertex="1">
          <mxGeometry x="790" y="420" width="80" height="20" as="geometry" />
        </mxCell>
        <mxCell id="I6ufPXRZWOeGENPabrLU-71" value="to_public() : &lt;br&gt;Normal scalarmult" style="edgeStyle=orthogonalEdgeStyle;rounded=0;orthogonalLoop=1;jettySize=auto;html=1;entryX=0.5;entryY=0;entryDx=0;entryDy=0;fontSize=12;labelBackgroundColor=none;" parent="1" source="I6ufPXRZWOeGENPabrLU-72" target="I6ufPXRZWOeGENPabrLU-70" edge="1">
          <mxGeometry x="0.3" y="20" relative="1" as="geometry">
            <Array as="points">
              <mxPoint x="670" y="390" />
              <mxPoint x="830" y="390" />
            </Array>
            <mxPoint as="offset" />
          </mxGeometry>
        </mxCell>
        <mxCell id="I6ufPXRZWOeGENPabrLU-72" value="priv key" style="rounded=0;whiteSpace=wrap;html=1;fontSize=12;align=center;fillColor=#ffe6cc;strokeColor=#d79b00;fontStyle=0" parent="1" vertex="1">
          <mxGeometry x="630" y="360" width="80" height="20" as="geometry" />
        </mxCell>
        <mxCell id="I6ufPXRZWOeGENPabrLU-73" value="" style="rounded=0;whiteSpace=wrap;html=1;fontSize=12;align=center;fillColor=#a20025;strokeColor=#6F0000;fontColor=#ffffff;opacity=40;" parent="1" vertex="1">
          <mxGeometry x="630" y="360" width="10" height="20" as="geometry" />
        </mxCell>
        <mxCell id="I6ufPXRZWOeGENPabrLU-74" value="" style="rounded=0;whiteSpace=wrap;html=1;fontSize=12;align=center;strokeColor=#6F0000;fontColor=#ffffff;opacity=70;fillColor=#FF0000;" parent="1" vertex="1">
          <mxGeometry x="700" y="360" width="10" height="20" as="geometry" />
        </mxCell>
        <mxCell id="I6ufPXRZWOeGENPabrLU-75" value="64 bytes exteded private key" style="rounded=0;whiteSpace=wrap;html=1;fontSize=12;align=center;fillColor=#ffe6cc;strokeColor=#d79b00;fontStyle=0" parent="1" vertex="1">
          <mxGeometry x="540" y="420" width="160" height="20" as="geometry" />
        </mxCell>
        <mxCell id="I6ufPXRZWOeGENPabrLU-76" value="" style="rounded=0;whiteSpace=wrap;html=1;fontSize=12;align=center;fillColor=#a20025;strokeColor=#6F0000;fontColor=#ffffff;opacity=40;" parent="1" vertex="1">
          <mxGeometry x="540" y="420" width="10" height="20" as="geometry" />
        </mxCell>
        <mxCell id="I6ufPXRZWOeGENPabrLU-77" value="" style="rounded=0;whiteSpace=wrap;html=1;fontSize=12;align=center;strokeColor=#6F0000;fontColor=#ffffff;opacity=70;fillColor=#FF0000;" parent="1" vertex="1">
          <mxGeometry x="610" y="420" width="10" height="20" as="geometry" />
        </mxCell>
        <mxCell id="I6ufPXRZWOeGENPabrLU-94" value="bits are set &lt;br&gt;differently&lt;br&gt;key[31] |= 0b00&lt;b&gt;&lt;font color=&quot;#ff0000&quot;&gt;1&lt;/font&gt;&lt;/b&gt;11111" style="edgeStyle=orthogonalEdgeStyle;rounded=0;orthogonalLoop=1;jettySize=auto;html=1;entryX=0.5;entryY=0;entryDx=0;entryDy=0;labelBackgroundColor=none;fontSize=12;" parent="1" source="I6ufPXRZWOeGENPabrLU-80" target="I6ufPXRZWOeGENPabrLU-67" edge="1">
          <mxGeometry x="-0.2593" y="30" relative="1" as="geometry">
            <mxPoint as="offset" />
          </mxGeometry>
        </mxCell>
        <mxCell id="I6ufPXRZWOeGENPabrLU-80" value="64b Extended priv key" style="rounded=0;whiteSpace=wrap;html=1;fontSize=12;align=center;fillColor=#ffe6cc;strokeColor=#d79b00;" parent="1" vertex="1">
          <mxGeometry x="630" y="240" width="160" height="20" as="geometry" />
        </mxCell>
        <mxCell id="I6ufPXRZWOeGENPabrLU-87" style="edgeStyle=orthogonalEdgeStyle;rounded=0;orthogonalLoop=1;jettySize=auto;html=1;entryX=0.388;entryY=0.1;entryDx=0;entryDy=0;entryPerimeter=0;labelBackgroundColor=none;fontSize=12;" parent="1" source="I6ufPXRZWOeGENPabrLU-81" target="I6ufPXRZWOeGENPabrLU-86" edge="1">
          <mxGeometry relative="1" as="geometry">
            <Array as="points">
              <mxPoint x="850" y="390" />
              <mxPoint x="901" y="390" />
            </Array>
          </mxGeometry>
        </mxCell>
        <mxCell id="I6ufPXRZWOeGENPabrLU-88" style="edgeStyle=orthogonalEdgeStyle;rounded=0;orthogonalLoop=1;jettySize=auto;html=1;entryX=0.5;entryY=0;entryDx=0;entryDy=0;labelBackgroundColor=none;fontSize=12;" parent="1" source="I6ufPXRZWOeGENPabrLU-81" target="I6ufPXRZWOeGENPabrLU-90" edge="1">
          <mxGeometry relative="1" as="geometry">
            <Array as="points">
              <mxPoint x="840" y="340" />
              <mxPoint x="740" y="340" />
            </Array>
          </mxGeometry>
        </mxCell>
        <mxCell id="I6ufPXRZWOeGENPabrLU-81" value="chain code" style="rounded=0;whiteSpace=wrap;html=1;fontSize=12;align=center;fillColor=#f8cecc;strokeColor=#b85450;" parent="1" vertex="1">
          <mxGeometry x="790" y="240" width="80" height="20" as="geometry" />
        </mxCell>
        <mxCell id="I6ufPXRZWOeGENPabrLU-86" value="chain code" style="rounded=0;whiteSpace=wrap;html=1;fontSize=12;align=center;fillColor=#f8cecc;strokeColor=#b85450;" parent="1" vertex="1">
          <mxGeometry x="870" y="420" width="80" height="20" as="geometry" />
        </mxCell>
        <mxCell id="I6ufPXRZWOeGENPabrLU-90" value="chain code" style="rounded=0;whiteSpace=wrap;html=1;fontSize=12;align=center;fillColor=#f8cecc;strokeColor=#b85450;" parent="1" vertex="1">
          <mxGeometry x="700" y="420" width="80" height="20" as="geometry" />
        </mxCell>
        <mxCell id="I6ufPXRZWOeGENPabrLU-95" value="Text" style="text;html=1;strokeColor=none;fillColor=none;align=center;verticalAlign=middle;whiteSpace=wrap;rounded=0;dashed=1;dashPattern=1 1;labelBackgroundColor=none;fontSize=12;opacity=40;" parent="1" vertex="1">
          <mxGeometry x="460" y="330" width="40" height="20" as="geometry" />
        </mxCell>
        <mxCell id="I6ufPXRZWOeGENPabrLU-96" value="ExtendedPrivateKey" style="text;html=1;align=center;verticalAlign=middle;resizable=0;points=[];autosize=1;fontSize=12;" parent="1" vertex="1">
          <mxGeometry x="280" y="440" width="120" height="20" as="geometry" />
        </mxCell>
        <mxCell id="I6ufPXRZWOeGENPabrLU-97" value="Private Key" style="text;html=1;align=center;verticalAlign=middle;resizable=0;points=[];autosize=1;fontSize=12;" parent="1" vertex="1">
          <mxGeometry x="20" y="440" width="80" height="20" as="geometry" />
        </mxCell>
        <mxCell id="I6ufPXRZWOeGENPabrLU-98" value="Xprv" style="text;html=1;strokeColor=none;fillColor=none;align=center;verticalAlign=middle;whiteSpace=wrap;rounded=0;dashed=1;dashPattern=1 1;labelBackgroundColor=none;fontSize=12;opacity=40;" parent="1" vertex="1">
          <mxGeometry x="540" y="440" width="40" height="20" as="geometry" />
        </mxCell>
        <mxCell id="I6ufPXRZWOeGENPabrLU-99" value="Xpub" style="text;html=1;strokeColor=none;fillColor=none;align=center;verticalAlign=middle;whiteSpace=wrap;rounded=0;dashed=1;dashPattern=1 1;labelBackgroundColor=none;fontSize=12;opacity=40;" parent="1" vertex="1">
          <mxGeometry x="790" y="440" width="40" height="20" as="geometry" />
        </mxCell>
        <mxCell id="I6ufPXRZWOeGENPabrLU-69" value="" style="rounded=0;whiteSpace=wrap;html=1;fontSize=12;align=center;fillColor=#a20025;fontColor=#ffffff;opacity=70;strokeColor=#FF0000;" parent="1" vertex="1">
          <mxGeometry x="700" y="314" width="10" height="20" as="geometry" />
        </mxCell>
        <mxCell id="nAcAYTowog2pHm2zANv1-2" value="32b pub key" style="rounded=0;whiteSpace=wrap;html=1;fontSize=12;align=center;fillColor=#dae8fc;strokeColor=#6c8ebf;fontStyle=0" parent="1" vertex="1">
          <mxGeometry x="190" y="420" width="80" height="20" as="geometry" />
        </mxCell>
      </root>
    </mxGraphModel>
  </diagram>
</mxfile>
